<svg width="24" height="25" viewBox="0 0 24 25" fill="none" xmlns="http://www.w3.org/2000/svg">
<path d="M2.28444 22.1492C2.47197 22.3367 2.72628 22.442 2.99144 22.442C3.2566 22.442 3.51091 22.3367 3.69844 22.1492L6.89844 18.9492C8.42165 19.9165 10.1871 20.4341 11.9914 20.4422C16.3164 20.4422 20.2184 17.4422 21.9294 12.7882C22.0124 12.565 22.0124 12.3194 21.9294 12.0962C21.2561 10.2181 20.1463 8.52665 18.6914 7.16122L21.7034 4.14922C21.799 4.05697 21.8751 3.94663 21.9275 3.82462C21.98 3.70262 22.0075 3.5714 22.0087 3.43862C22.0098 3.30584 21.9845 3.17416 21.9343 3.05127C21.884 2.92837 21.8097 2.81672 21.7158 2.72282C21.6219 2.62893 21.5103 2.55468 21.3874 2.5044C21.2645 2.45412 21.1328 2.42882 21 2.42997C20.8673 2.43112 20.736 2.45871 20.614 2.51112C20.492 2.56353 20.3817 2.63971 20.2894 2.73522L17.0894 5.93522C15.5648 4.96699 13.7975 4.44943 11.9914 4.44222C7.66644 4.44222 3.76444 7.44222 2.05344 12.0962C1.97047 12.3194 1.97047 12.565 2.05344 12.7882C2.72826 14.6669 3.83978 16.3583 5.29644 17.7232L2.28444 20.7352C2.09697 20.9227 1.99165 21.1771 1.99165 21.4422C1.99165 21.7074 2.09697 21.9617 2.28444 22.1492ZM17.2574 8.59022C18.425 9.65633 19.3355 10.9734 19.9204 12.4422C18.4424 16.0992 15.3644 18.4422 11.9914 18.4422C10.7196 18.4365 9.46995 18.1082 8.35944 17.4882L9.97244 15.8752C10.582 16.2428 11.2796 16.4387 11.9914 16.4422C13.0523 16.4422 14.0697 16.0208 14.8199 15.2706C15.57 14.5205 15.9914 13.5031 15.9914 12.4422C15.988 11.7304 15.792 11.0328 15.4244 10.4232L17.2574 8.59022ZM10.0664 12.9532C10.019 12.7869 9.99379 12.6151 9.99144 12.4422C9.99144 11.9118 10.2022 11.4031 10.5772 11.028C10.9523 10.6529 11.461 10.4422 11.9914 10.4422C12.1643 10.4446 12.3362 10.4698 12.5024 10.5172L10.0664 12.9532ZM13.9164 11.9312C13.9639 12.0975 13.9891 12.2693 13.9914 12.4422C13.9914 12.9727 13.7807 13.4814 13.4057 13.8564C13.0306 14.2315 12.5219 14.4422 11.9914 14.4422C11.8185 14.4399 11.6467 14.4147 11.4804 14.3672L13.9164 11.9312ZM4.06244 12.4422C5.54044 8.78522 8.61844 6.44222 11.9914 6.44222C13.2633 6.44796 14.5129 6.77619 15.6234 7.39622L14.0104 9.00922C13.4009 8.64162 12.7033 8.4457 11.9914 8.44222C10.9306 8.44222 9.91316 8.86365 9.16301 9.61379C8.41287 10.3639 7.99144 11.3814 7.99144 12.4422C7.99492 13.154 8.19084 13.8517 8.55844 14.4612L6.72544 16.2942C5.55791 15.2281 4.6474 13.9111 4.06244 12.4422Z" fill="#A0A6AD"/>
</svg>
