<svg width="24" height="25" viewBox="0 0 24 25" fill="none" xmlns="http://www.w3.org/2000/svg">
<path d="M2.06223 12.7819C3.77323 17.4359 7.67523 20.4359 12.0002 20.4359C16.3252 20.4359 20.2272 17.4359 21.9382 12.7819C22.0212 12.5587 22.0212 12.3131 21.9382 12.0899C20.2272 7.43591 16.3252 4.43591 12.0002 4.43591C7.67523 4.43591 3.77323 7.43591 2.06223 12.0899C1.97926 12.3131 1.97926 12.5587 2.06223 12.7819ZM12.0002 6.43591C15.3732 6.43591 18.4512 8.77891 19.9292 12.4359C18.4512 16.0929 15.3732 18.4359 12.0002 18.4359C8.62723 18.4359 5.54923 16.0929 4.07123 12.4359C5.54923 8.77891 8.62723 6.43591 12.0002 6.43591ZM12.0002 16.4359C12.7914 16.4359 13.5647 16.2013 14.2225 15.7618C14.8803 15.3223 15.393 14.6976 15.6957 13.9666C15.9985 13.2357 16.0777 12.4315 15.9234 11.6556C15.769 10.8796 15.3881 10.1669 14.8287 9.60749C14.2692 9.04808 13.5565 8.66711 12.7806 8.51277C12.0047 8.35843 11.2004 8.43764 10.4695 8.74039C9.73859 9.04315 9.11388 9.55584 8.67435 10.2136C8.23483 10.8714 8.00023 11.6448 8.00023 12.4359C8.00023 13.4968 8.42166 14.5142 9.1718 15.2643C9.92195 16.0145 10.9394 16.4359 12.0002 16.4359ZM12.0002 10.4359C12.3958 10.4359 12.7825 10.5532 13.1114 10.773C13.4403 10.9927 13.6966 11.3051 13.848 11.6705C13.9994 12.036 14.039 12.4381 13.9618 12.8261C13.8846 13.2141 13.6941 13.5704 13.4144 13.8501C13.1347 14.1298 12.7784 14.3203 12.3904 14.3975C12.0024 14.4747 11.6003 14.435 11.2349 14.2837C10.8694 14.1323 10.5571 13.876 10.3373 13.5471C10.1175 13.2182 10.0002 12.8315 10.0002 12.4359C10.0002 11.9055 10.2109 11.3968 10.586 11.0217C10.9611 10.6466 11.4698 10.4359 12.0002 10.4359Z" fill="#A0A6AD"/>
</svg>
