<svg width="155" height="35" viewBox="0 0 155 35" fill="none" xmlns="http://www.w3.org/2000/svg">
<path d="M24.3847 15.0552H21.1693C20.9801 15.055 20.793 15.0148 20.6204 14.9374C20.4477 14.8599 20.2934 14.7468 20.1675 14.6056L18.6331 12.8806C18.3925 12.6102 18.0974 12.3938 17.7673 12.2456C17.4372 12.0974 17.0794 12.0206 16.7175 12.0205H9.14306C8.77968 12.0231 8.42099 12.1028 8.09075 12.2545C7.76051 12.4061 7.46625 12.6262 7.22746 12.9001L5.69303 14.6251C5.56711 14.7664 5.41279 14.8794 5.24016 14.9569C5.06752 15.0344 4.88047 15.0745 4.69125 15.0747H2.56553C1.88511 15.0747 1.23256 15.345 0.751427 15.8261C0.270296 16.3073 0 16.9598 0 17.6402V32.3688C0 33.0492 0.270296 33.7018 0.751427 34.1829C1.23256 34.6641 1.88511 34.9344 2.56553 34.9344H24.3847C25.0652 34.9344 25.7177 34.6641 26.1989 34.1829C26.68 33.7018 26.9503 33.0492 26.9503 32.3688V17.6451C26.9535 17.3062 26.8895 16.9699 26.762 16.6558C26.6346 16.3417 26.4461 16.056 26.2075 15.8152C25.969 15.5744 25.6851 15.3832 25.3722 15.2528C25.0593 15.1223 24.7237 15.0551 24.3847 15.0552ZM25.7286 32.3444C25.7286 32.7008 25.587 33.0426 25.335 33.2946C25.083 33.5467 24.7412 33.6882 24.3847 33.6882H2.56553C2.20912 33.6882 1.86731 33.5467 1.61529 33.2946C1.36326 33.0426 1.22168 32.7008 1.22168 32.3444V17.6451C1.22168 17.2887 1.36326 16.9469 1.61529 16.6949C1.86731 16.4429 2.20912 16.3013 2.56553 16.3013H4.68637C5.04826 16.3011 5.40604 16.2244 5.73619 16.0762C6.06633 15.928 6.36139 15.7116 6.60196 15.4412L8.13639 13.7162C8.26231 13.575 8.41664 13.4619 8.58927 13.3844C8.7619 13.307 8.94895 13.2668 9.13817 13.2666H16.7175C16.9067 13.2668 17.0937 13.307 17.2664 13.3844C17.439 13.4619 17.5933 13.575 17.7193 13.7162L19.2537 15.4412C19.4943 15.7116 19.7893 15.928 20.1195 16.0762C20.4496 16.2244 20.8074 16.3011 21.1693 16.3013H24.3847C24.7412 16.3013 25.083 16.4429 25.335 16.6949C25.587 16.9469 25.7286 17.2887 25.7286 17.6451V32.3444Z" fill="#66C6BA"/>
<path d="M13.1551 20.9192C12.4234 20.9192 11.7082 21.1362 11.0999 21.5427C10.4915 21.9491 10.0174 22.5269 9.7374 23.2028C9.45741 23.8788 9.38416 24.6226 9.52689 25.3402C9.66963 26.0577 10.0219 26.7169 10.5393 27.2342C11.0566 27.7516 11.7158 28.1039 12.4334 28.2466C13.151 28.3894 13.8948 28.3161 14.5707 28.0361C15.2467 27.7561 15.8244 27.282 16.2309 26.6737C16.6374 26.0653 16.8543 25.3501 16.8543 24.6185C16.853 23.6378 16.4629 22.6976 15.7694 22.0041C15.0759 21.3107 14.1358 20.9205 13.1551 20.9192ZM13.1551 27.0911C12.665 27.0911 12.186 26.9458 11.7786 26.6736C11.3712 26.4014 11.0536 26.0144 10.8661 25.5617C10.6786 25.109 10.6295 24.6108 10.7251 24.1302C10.8207 23.6496 11.0567 23.2082 11.4032 22.8617C11.7496 22.5152 12.1911 22.2792 12.6717 22.1836C13.1523 22.088 13.6505 22.1371 14.1032 22.3246C14.5559 22.5121 14.9428 22.8297 15.2151 23.2371C15.4873 23.6446 15.6326 24.1236 15.6326 24.6136C15.6326 25.2707 15.3716 25.9009 14.907 26.3655C14.4423 26.8301 13.8122 27.0911 13.1551 27.0911Z" fill="#66C6BA"/>
<path d="M13.155 18.7593C11.9952 18.7593 10.8615 19.1032 9.89712 19.7475C8.93278 20.3919 8.18117 21.3077 7.73733 22.3793C7.2935 23.4508 7.17737 24.6298 7.40363 25.7674C7.6299 26.9049 8.1884 27.9498 9.0085 28.7699C9.82861 29.59 10.8735 30.1485 12.011 30.3747C13.1485 30.601 14.3276 30.4849 15.3991 30.041C16.4706 29.5972 17.3865 28.8456 18.0308 27.8812C18.6752 26.9169 19.0191 25.7831 19.0191 24.6233C19.0191 23.0681 18.4013 21.5765 17.3015 20.4768C16.2018 19.3771 14.7103 18.7593 13.155 18.7593ZM13.155 29.2413C12.2388 29.2413 11.3431 28.9696 10.5813 28.4606C9.81945 27.9515 9.22568 27.228 8.87505 26.3815C8.52442 25.535 8.43268 24.6035 8.61143 23.7049C8.79018 22.8063 9.23139 21.9808 9.87927 21.3329C10.5272 20.685 11.3526 20.2438 12.2512 20.0651C13.1499 19.8863 14.0813 19.9781 14.9278 20.3287C15.7743 20.6793 16.4979 21.2731 17.0069 22.0349C17.5159 22.7968 17.7876 23.6924 17.7876 24.6087C17.7825 25.8344 17.2923 27.0082 16.4242 27.8735C15.5561 28.7389 14.3807 29.2254 13.155 29.2266V29.2413Z" fill="#66C6BA"/>
<path d="M22.1271 17.2493C21.7077 17.2493 21.2976 17.3737 20.9489 17.6067C20.6001 17.8398 20.3282 18.171 20.1677 18.5585C20.0072 18.9461 19.9652 19.3725 20.047 19.7839C20.1289 20.1953 20.3309 20.5732 20.6275 20.8698C20.9241 21.1664 21.302 21.3684 21.7134 21.4502C22.1248 21.5321 22.5512 21.4901 22.9387 21.3295C23.3263 21.169 23.6575 20.8972 23.8905 20.5484C24.1236 20.1996 24.248 19.7896 24.248 19.3701C24.2467 18.8081 24.0228 18.2694 23.6254 17.8719C23.2279 17.4744 22.6892 17.2506 22.1271 17.2493ZM22.1271 20.2742C21.9493 20.2742 21.7754 20.2214 21.6276 20.1226C21.4797 20.0238 21.3645 19.8834 21.2964 19.7191C21.2284 19.5548 21.2106 19.374 21.2452 19.1996C21.2799 19.0252 21.3656 18.865 21.4913 18.7392C21.6171 18.6135 21.7773 18.5278 21.9517 18.4931C22.1261 18.4584 22.3069 18.4763 22.4712 18.5443C22.6355 18.6124 22.7759 18.7276 22.8747 18.8755C22.9735 19.0233 23.0263 19.1972 23.0263 19.375C23.025 19.6131 22.9299 19.8411 22.7615 20.0094C22.5932 20.1778 22.3652 20.2729 22.1271 20.2742Z" fill="#66C6BA"/>
<path d="M22.127 24.2568C22.5507 24.2568 22.8942 23.9133 22.8942 23.4896C22.8942 23.0659 22.5507 22.7224 22.127 22.7224C21.7033 22.7224 21.3598 23.0659 21.3598 23.4896C21.3598 23.9133 21.7033 24.2568 22.127 24.2568Z" fill="#66C6BA"/>
<path d="M9.41181 3.27325H8.25854V4.42652H9.41181V3.27325Z" fill="#66C6BA"/>
<path d="M9.41181 5.62866H8.25854V6.78193H9.41181V5.62866Z" fill="#66C6BA"/>
<path d="M31.2311 3.27325H30.0778V4.42652H31.2311V3.27325Z" fill="#66C6BA"/>
<path d="M31.2311 5.62866H30.0778V6.78193H31.2311V5.62866Z" fill="#66C6BA"/>
<path d="M31.2311 7.97919H30.0778V9.13245H31.2311V7.97919Z" fill="#66C6BA"/>
<path d="M31.2311 10.3297H30.0778V11.4829H31.2311V10.3297Z" fill="#66C6BA"/>
<path d="M31.2311 17.3861H30.0778V18.5394H31.2311V17.3861Z" fill="#66C6BA"/>
<path d="M31.2311 19.7366H30.0778V20.8899H31.2311V19.7366Z" fill="#66C6BA"/>
<path d="M31.2311 22.092H30.0778V23.2453H31.2311V22.092Z" fill="#66C6BA"/>
<path d="M31.2311 24.4425H30.0778V25.5958H31.2311V24.4425Z" fill="#66C6BA"/>
<path d="M33.9578 14.1609V2.23239C33.9578 1.65695 33.7292 1.10507 33.3223 0.698175C32.9154 0.291277 32.3636 0.0626831 31.7881 0.0626831H7.51577C6.94033 0.0626831 6.38846 0.291277 5.98156 0.698175C5.57466 1.10507 5.34607 1.65695 5.34607 2.23239V9.93386C5.34607 10.0959 5.41043 10.2512 5.52498 10.3658C5.63954 10.4803 5.7949 10.5447 5.95691 10.5447C6.11891 10.5447 6.27428 10.4803 6.38884 10.3658C6.50339 10.2512 6.56775 10.0959 6.56775 9.93386V2.23239C6.56775 1.98096 6.66763 1.73982 6.84542 1.56203C7.02321 1.38424 7.26434 1.28436 7.51577 1.28436H10.8192V9.59179C10.8192 9.7538 10.8836 9.90917 10.9981 10.0237C11.1127 10.1383 11.268 10.2026 11.43 10.2026C11.592 10.2026 11.7474 10.1383 11.862 10.0237C11.9765 9.90917 12.0409 9.7538 12.0409 9.59179V1.28436H27.0969V12.2942C27.0969 12.4562 27.1612 12.6115 27.2758 12.7261C27.3903 12.8406 27.5457 12.905 27.7077 12.905C27.8697 12.905 28.0251 12.8406 28.1396 12.7261C28.2542 12.6115 28.3186 12.4562 28.3186 12.2942V1.28436H31.7881C32.0396 1.28436 32.2807 1.38424 32.4585 1.56203C32.6363 1.73982 32.7362 1.98096 32.7362 2.23239V13.7553H27.9178C27.7558 13.7553 27.6005 13.8196 27.4859 13.9342C27.3714 14.0487 27.307 14.2041 27.307 14.3661C27.307 14.5281 27.3714 14.6835 27.4859 14.7981C27.6005 14.9126 27.7558 14.977 27.9178 14.977H32.7362V26.5047C32.7362 26.7562 32.6363 26.9973 32.4585 27.1751C32.2807 27.3529 32.0396 27.4528 31.7881 27.4528H28.988C28.826 27.4528 28.6707 27.5171 28.5561 27.6317C28.4416 27.7462 28.3772 27.9016 28.3772 28.0636C28.3772 28.2256 28.4416 28.381 28.5561 28.4955C28.6707 28.6101 28.826 28.6744 28.988 28.6744H31.7881C32.3636 28.6744 32.9154 28.4459 33.3223 28.039C33.7292 27.6321 33.9578 27.0802 33.9578 26.5047V14.5665C33.9857 14.5008 34 14.4301 34 14.3588C34 14.2874 33.9857 14.2168 33.9578 14.1511V14.1609Z" fill="#66C6BA"/>
<path d="M43.776 9.26268H52.152C53.48 9.26268 54.544 9.63868 55.344 10.3907C56.16 11.1267 56.568 12.1107 56.568 13.3427V15.7427C56.568 17.0387 56.136 18.0867 55.272 18.8867C54.424 19.6707 53.296 20.0627 51.888 20.0627H46.056V26.0627H43.776V9.26268ZM51.84 18.0467C52.576 18.0467 53.168 17.8307 53.616 17.3987C54.064 16.9507 54.288 16.3667 54.288 15.6467V13.3667C54.288 12.7427 54.088 12.2387 53.688 11.8547C53.288 11.4707 52.76 11.2787 52.104 11.2787H46.056V18.0467H51.84ZM58.8675 9.26268H61.0995V15.5987C61.4675 15.0867 61.9315 14.6787 62.4915 14.3747C63.0515 14.0547 63.6035 13.8947 64.1475 13.8947H65.7795C66.9315 13.8947 67.8595 14.2787 68.5635 15.0467C69.2835 15.8147 69.6435 16.8227 69.6435 18.0707V26.0627H67.4115V18.0707C67.4115 17.4147 67.2435 16.8867 66.9075 16.4867C66.5715 16.0707 66.1315 15.8627 65.5875 15.8627H64.0515C63.3635 15.8627 62.7395 16.1267 62.1795 16.6547C61.6195 17.1667 61.2595 17.8387 61.0995 18.6707V26.0627H58.8675V9.26268ZM77.0597 26.2547C75.6517 26.2547 74.5157 25.8307 73.6517 24.9827C72.8037 24.1347 72.3797 23.0227 72.3797 21.6467V18.5267C72.3797 17.1347 72.8117 16.0147 73.6757 15.1667C74.5397 14.3187 75.6837 13.8947 77.1077 13.8947H79.1237C80.5477 13.8947 81.6917 14.3187 82.5557 15.1667C83.4197 16.0147 83.8517 17.1347 83.8517 18.5267V21.6467C83.8517 23.0227 83.4117 24.1347 82.5317 24.9827C81.6677 25.8307 80.5237 26.2547 79.0997 26.2547H77.0597ZM79.0757 24.2867C79.8437 24.2867 80.4597 24.0387 80.9237 23.5427C81.3877 23.0467 81.6197 22.3827 81.6197 21.5507V18.5987C81.6197 17.7667 81.3877 17.1027 80.9237 16.6067C80.4757 16.1107 79.8757 15.8627 79.1237 15.8627H77.1077C76.3557 15.8627 75.7477 16.1107 75.2837 16.6067C74.8357 17.1027 74.6117 17.7667 74.6117 18.5987V21.5507C74.6117 22.3827 74.8357 23.0467 75.2837 23.5427C75.7317 24.0387 76.3317 24.2867 77.0837 24.2867H79.0757ZM91.4661 26.0627C90.1541 26.0627 89.2021 25.7747 88.6101 25.1987C88.0341 24.6227 87.7461 23.6947 87.7461 22.4147V16.0307H85.6341V14.0867H87.7701V10.4627H89.9781V14.0867H93.0981V16.0307H89.9781V22.3667C89.9781 22.9907 90.0981 23.4387 90.3381 23.7107C90.5941 23.9827 91.0021 24.1187 91.5621 24.1187H93.0981V26.0627H91.4661ZM99.7941 26.2547C98.3861 26.2547 97.2501 25.8307 96.3861 24.9827C95.5381 24.1347 95.1141 23.0227 95.1141 21.6467V18.5267C95.1141 17.1347 95.5461 16.0147 96.4101 15.1667C97.2741 14.3187 98.4181 13.8947 99.8421 13.8947H101.858C103.282 13.8947 104.426 14.3187 105.29 15.1667C106.154 16.0147 106.586 17.1347 106.586 18.5267V21.6467C106.586 23.0227 106.146 24.1347 105.266 24.9827C104.402 25.8307 103.258 26.2547 101.834 26.2547H99.7941ZM101.81 24.2867C102.578 24.2867 103.194 24.0387 103.658 23.5427C104.122 23.0467 104.354 22.3827 104.354 21.5507V18.5987C104.354 17.7667 104.122 17.1027 103.658 16.6067C103.21 16.1107 102.61 15.8627 101.858 15.8627H99.8421C99.0901 15.8627 98.4821 16.1107 98.0181 16.6067C97.5701 17.1027 97.3461 17.7667 97.3461 18.5987V21.5507C97.3461 22.3827 97.5701 23.0467 98.0181 23.5427C98.4661 24.0387 99.0661 24.2867 99.8181 24.2867H101.81ZM111.389 26.0627C110.829 26.0627 110.381 25.9027 110.045 25.5827C109.725 25.2627 109.565 24.8307 109.565 24.2867V9.26268H111.845V24.0467H120.965V26.0627H111.389ZM124.693 12.5027C124.229 12.5027 123.853 12.3667 123.565 12.0947C123.277 11.8067 123.133 11.4387 123.133 10.9907C123.133 10.5427 123.277 10.1827 123.565 9.91068C123.853 9.62268 124.229 9.47868 124.693 9.47868C125.157 9.47868 125.525 9.62268 125.797 9.91068C126.085 10.1827 126.229 10.5427 126.229 10.9907C126.229 11.4387 126.085 11.8067 125.797 12.0947C125.525 12.3667 125.157 12.5027 124.693 12.5027ZM123.565 14.0867H125.797V26.0627H123.565V14.0867ZM129.578 14.0867H131.714V15.7427C132.066 15.1987 132.53 14.7587 133.106 14.4227C133.698 14.0707 134.282 13.8947 134.858 13.8947H136.442C137.594 13.8947 138.522 14.2787 139.226 15.0467C139.946 15.8147 140.306 16.8227 140.306 18.0707V26.0627H138.074V18.0707C138.074 17.4147 137.906 16.8867 137.57 16.4867C137.234 16.0707 136.794 15.8627 136.25 15.8627H134.762C134.074 15.8627 133.45 16.1267 132.89 16.6547C132.33 17.1827 131.97 17.8707 131.81 18.7187V26.0627H129.578V14.0867ZM151.684 26.0627L147.316 20.6867L145.756 22.2227V26.0627H143.524V9.26268H145.756V19.5827L151.3 14.0867H153.964L148.78 19.2227L154.276 26.0627H151.684Z" fill="#66C6BA"/>
</svg>
