<svg width="28" height="28" viewBox="0 0 28 28" fill="none" xmlns="http://www.w3.org/2000/svg">
<path fill-rule="evenodd" clip-rule="evenodd" d="M25.6668 13.9999C25.6668 20.4432 20.4435 25.6666 14.0002 25.6666C7.55684 25.6666 2.3335 20.4432 2.3335 13.9999C2.3335 7.5566 7.55684 2.33325 14.0002 2.33325C20.4435 2.33325 25.6668 7.5566 25.6668 13.9999ZM20.4543 8.22974C20.6287 8.28419 20.7906 8.37249 20.9307 8.48959C21.0709 8.60635 21.1868 8.74961 21.2716 8.91117C21.3564 9.07272 21.4086 9.24941 21.4251 9.43114C21.4416 9.61286 21.4221 9.79606 21.3678 9.97026C21.3135 10.1445 21.2254 10.3062 21.1085 10.4464L13.6089 19.3347C13.4853 19.4832 13.3319 19.6042 13.1588 19.6901C12.9857 19.7759 12.7965 19.8247 12.6035 19.8333H12.541C12.3581 19.8336 12.177 19.7978 12.0081 19.728C11.8391 19.6581 11.6856 19.5556 11.5563 19.4263L7.39001 15.26C7.13703 14.9981 6.99705 14.6473 7.00022 14.2832C7.00338 13.919 7.14943 13.5707 7.40692 13.3132C7.66441 13.0557 8.01274 12.9097 8.37687 12.9065C8.741 12.9033 9.09181 13.0433 9.35373 13.2963L12.4451 16.3877L18.9725 8.66735C19.0893 8.52692 19.2327 8.41092 19.3943 8.32596C19.556 8.24101 19.7329 8.18879 19.9148 8.17227C20.0966 8.15576 20.28 8.17529 20.4543 8.22974Z" fill="#00D64F"/>
</svg>
