<svg width="28" height="28" viewBox="0 0 28 28" fill="none" xmlns="http://www.w3.org/2000/svg">
<path fill-rule="evenodd" clip-rule="evenodd" d="M25.6668 14C25.6668 20.4433 20.4435 25.6667 14.0002 25.6667C7.55684 25.6667 2.3335 20.4433 2.3335 14C2.3335 7.55668 7.55684 2.33334 14.0002 2.33334C20.4435 2.33334 25.6668 7.55668 25.6668 14ZM9.05463 9.05333C9.46058 8.64738 10.1188 8.64738 10.5247 9.05333L14.0002 12.5288L17.4756 9.05333C17.8816 8.64738 18.5398 8.64738 18.9457 9.05333C19.3517 9.45927 19.3517 10.1174 18.9457 10.5234L15.4702 13.9989L18.9247 17.4533C19.3307 17.8593 19.3307 18.5174 18.9247 18.9234C18.5188 19.3293 17.8606 19.3293 17.4546 18.9234L14.0002 15.4689L10.5457 18.9234C10.1398 19.3293 9.48158 19.3293 9.07562 18.9234C8.66968 18.5174 8.66968 17.8593 9.07562 17.4533L12.5301 13.9989L9.05463 10.5234C8.64868 10.1174 8.64868 9.45927 9.05463 9.05333Z" fill="#F2364C"/>
</svg>
