<svg width="34" height="35" viewBox="0 0 34 35" fill="none" xmlns="http://www.w3.org/2000/svg">
<path d="M24.3847 15.0552H21.1693C20.9801 15.055 20.793 15.0148 20.6204 14.9374C20.4478 14.8599 20.2934 14.7468 20.1675 14.6056L18.6331 12.8806C18.3925 12.6102 18.0974 12.3938 17.7673 12.2456C17.4372 12.0974 17.0794 12.0206 16.7175 12.0205H9.14306C8.77968 12.0231 8.42099 12.1028 8.09075 12.2545C7.76051 12.4061 7.46625 12.6262 7.22746 12.9001L5.69303 14.6251C5.56711 14.7664 5.41279 14.8794 5.24016 14.9569C5.06752 15.0344 4.88047 15.0745 4.69125 15.0747H2.56553C1.88511 15.0747 1.23256 15.345 0.751427 15.8261C0.270296 16.3073 0 16.9598 0 17.6402V32.3688C0 33.0492 0.270296 33.7018 0.751427 34.1829C1.23256 34.6641 1.88511 34.9344 2.56553 34.9344H24.3847C25.0652 34.9344 25.7177 34.6641 26.1989 34.1829C26.68 33.7018 26.9503 33.0492 26.9503 32.3688V17.6451C26.9535 17.3062 26.8895 16.9699 26.762 16.6558C26.6346 16.3417 26.4461 16.056 26.2075 15.8152C25.969 15.5744 25.6851 15.3832 25.3722 15.2528C25.0593 15.1223 24.7237 15.0551 24.3847 15.0552ZM25.7286 32.3444C25.7286 32.7008 25.587 33.0426 25.335 33.2946C25.083 33.5467 24.7412 33.6882 24.3847 33.6882H2.56553C2.20912 33.6882 1.86731 33.5467 1.61529 33.2946C1.36326 33.0426 1.22168 32.7008 1.22168 32.3444V17.6451C1.22168 17.2887 1.36326 16.9469 1.61529 16.6949C1.86731 16.4429 2.20912 16.3013 2.56553 16.3013H4.68637C5.04826 16.3011 5.40604 16.2244 5.73619 16.0762C6.06633 15.928 6.36139 15.7116 6.60196 15.4412L8.13639 13.7162C8.26231 13.575 8.41664 13.4619 8.58927 13.3844C8.7619 13.307 8.94895 13.2668 9.13817 13.2666H16.7175C16.9067 13.2668 17.0937 13.307 17.2664 13.3844C17.439 13.4619 17.5933 13.575 17.7193 13.7162L19.2537 15.4412C19.4943 15.7116 19.7893 15.928 20.1195 16.0762C20.4496 16.2244 20.8074 16.3011 21.1693 16.3013H24.3847C24.7412 16.3013 25.083 16.4429 25.335 16.6949C25.587 16.9469 25.7286 17.2887 25.7286 17.6451V32.3444Z" fill="#66C6BA"/>
<path d="M13.1551 20.9192C12.4234 20.9192 11.7082 21.1362 11.0999 21.5427C10.4915 21.9491 10.0174 22.5269 9.7374 23.2028C9.45741 23.8788 9.38416 24.6226 9.52689 25.3402C9.66963 26.0577 10.0219 26.7169 10.5393 27.2342C11.0566 27.7516 11.7158 28.1039 12.4334 28.2466C13.151 28.3894 13.8948 28.3161 14.5707 28.0361C15.2467 27.7561 15.8244 27.282 16.2309 26.6737C16.6374 26.0653 16.8543 25.3501 16.8543 24.6185C16.853 23.6378 16.4629 22.6976 15.7694 22.0041C15.0759 21.3107 14.1358 20.9205 13.1551 20.9192ZM13.1551 27.0911C12.665 27.0911 12.186 26.9458 11.7786 26.6736C11.3712 26.4014 11.0536 26.0144 10.8661 25.5617C10.6786 25.109 10.6295 24.6108 10.7251 24.1302C10.8207 23.6496 11.0567 23.2082 11.4032 22.8617C11.7496 22.5152 12.1911 22.2792 12.6717 22.1836C13.1523 22.088 13.6505 22.1371 14.1032 22.3246C14.5559 22.5121 14.9428 22.8297 15.2151 23.2371C15.4873 23.6446 15.6326 24.1236 15.6326 24.6136C15.6326 25.2707 15.3716 25.9009 14.907 26.3655C14.4423 26.8301 13.8122 27.0911 13.1551 27.0911Z" fill="#66C6BA"/>
<path d="M13.155 18.7593C11.9952 18.7593 10.8615 19.1032 9.89712 19.7475C8.93278 20.3919 8.18117 21.3077 7.73733 22.3793C7.2935 23.4508 7.17737 24.6298 7.40363 25.7674C7.6299 26.9049 8.1884 27.9498 9.0085 28.7699C9.82861 29.59 10.8735 30.1485 12.011 30.3747C13.1485 30.601 14.3276 30.4849 15.3991 30.041C16.4706 29.5972 17.3865 28.8456 18.0308 27.8812C18.6752 26.9169 19.0191 25.7831 19.0191 24.6233C19.0191 23.0681 18.4013 21.5765 17.3015 20.4768C16.2018 19.3771 14.7103 18.7593 13.155 18.7593ZM13.155 29.2413C12.2388 29.2413 11.3431 28.9696 10.5813 28.4606C9.81945 27.9515 9.22568 27.228 8.87505 26.3815C8.52442 25.535 8.43268 24.6035 8.61143 23.7049C8.79018 22.8063 9.23139 21.9808 9.87927 21.3329C10.5272 20.685 11.3526 20.2438 12.2512 20.0651C13.1499 19.8863 14.0813 19.9781 14.9278 20.3287C15.7743 20.6793 16.4979 21.2731 17.0069 22.0349C17.5159 22.7968 17.7876 23.6924 17.7876 24.6087C17.7825 25.8344 17.2923 27.0082 16.4242 27.8735C15.5561 28.7389 14.3807 29.2254 13.155 29.2266V29.2413Z" fill="#66C6BA"/>
<path d="M22.1271 17.2493C21.7077 17.2493 21.2976 17.3737 20.9489 17.6067C20.6001 17.8398 20.3282 18.171 20.1677 18.5585C20.0072 18.9461 19.9652 19.3725 20.047 19.7839C20.1289 20.1953 20.3309 20.5732 20.6275 20.8698C20.9241 21.1664 21.302 21.3684 21.7134 21.4502C22.1248 21.5321 22.5512 21.4901 22.9387 21.3295C23.3263 21.169 23.6575 20.8972 23.8905 20.5484C24.1236 20.1996 24.248 19.7896 24.248 19.3701C24.2467 18.8081 24.0228 18.2694 23.6254 17.8719C23.2279 17.4744 22.6892 17.2506 22.1271 17.2493ZM22.1271 20.2742C21.9493 20.2742 21.7754 20.2214 21.6276 20.1226C21.4797 20.0238 21.3645 19.8834 21.2964 19.7191C21.2284 19.5548 21.2106 19.374 21.2452 19.1996C21.2799 19.0252 21.3656 18.865 21.4913 18.7392C21.6171 18.6135 21.7773 18.5278 21.9517 18.4931C22.1261 18.4584 22.3069 18.4763 22.4712 18.5443C22.6355 18.6124 22.7759 18.7276 22.8747 18.8755C22.9735 19.0233 23.0263 19.1972 23.0263 19.375C23.025 19.6131 22.9299 19.8411 22.7615 20.0094C22.5932 20.1778 22.3652 20.2729 22.1271 20.2742Z" fill="#66C6BA"/>
<path d="M22.127 24.2568C22.5507 24.2568 22.8942 23.9133 22.8942 23.4896C22.8942 23.0659 22.5507 22.7224 22.127 22.7224C21.7033 22.7224 21.3598 23.0659 21.3598 23.4896C21.3598 23.9133 21.7033 24.2568 22.127 24.2568Z" fill="#66C6BA"/>
<path d="M9.41181 3.27325H8.25854V4.42652H9.41181V3.27325Z" fill="#66C6BA"/>
<path d="M9.41181 5.62866H8.25854V6.78193H9.41181V5.62866Z" fill="#66C6BA"/>
<path d="M31.2311 3.27325H30.0778V4.42652H31.2311V3.27325Z" fill="#66C6BA"/>
<path d="M31.2311 5.62866H30.0778V6.78193H31.2311V5.62866Z" fill="#66C6BA"/>
<path d="M31.2311 7.97919H30.0778V9.13245H31.2311V7.97919Z" fill="#66C6BA"/>
<path d="M31.2311 10.3297H30.0778V11.4829H31.2311V10.3297Z" fill="#66C6BA"/>
<path d="M31.2311 17.3861H30.0778V18.5394H31.2311V17.3861Z" fill="#66C6BA"/>
<path d="M31.2311 19.7366H30.0778V20.8899H31.2311V19.7366Z" fill="#66C6BA"/>
<path d="M31.2311 22.092H30.0778V23.2453H31.2311V22.092Z" fill="#66C6BA"/>
<path d="M31.2311 24.4425H30.0778V25.5958H31.2311V24.4425Z" fill="#66C6BA"/>
<path d="M33.9578 14.1609V2.23239C33.9578 1.65695 33.7292 1.10507 33.3223 0.698175C32.9154 0.291277 32.3636 0.0626831 31.7881 0.0626831H7.51577C6.94033 0.0626831 6.38846 0.291277 5.98156 0.698175C5.57466 1.10507 5.34607 1.65695 5.34607 2.23239V9.93386C5.34607 10.0959 5.41043 10.2512 5.52498 10.3658C5.63954 10.4803 5.7949 10.5447 5.95691 10.5447C6.11891 10.5447 6.27428 10.4803 6.38884 10.3658C6.50339 10.2512 6.56775 10.0959 6.56775 9.93386V2.23239C6.56775 1.98096 6.66763 1.73982 6.84542 1.56203C7.02321 1.38424 7.26434 1.28436 7.51577 1.28436H10.8192V9.59179C10.8192 9.7538 10.8836 9.90917 10.9981 10.0237C11.1127 10.1383 11.268 10.2026 11.43 10.2026C11.592 10.2026 11.7474 10.1383 11.862 10.0237C11.9765 9.90917 12.0409 9.7538 12.0409 9.59179V1.28436H27.0969V12.2942C27.0969 12.4562 27.1612 12.6115 27.2758 12.7261C27.3903 12.8406 27.5457 12.905 27.7077 12.905C27.8697 12.905 28.0251 12.8406 28.1396 12.7261C28.2542 12.6115 28.3186 12.4562 28.3186 12.2942V1.28436H31.7881C32.0396 1.28436 32.2807 1.38424 32.4585 1.56203C32.6363 1.73982 32.7362 1.98096 32.7362 2.23239V13.7553H27.9178C27.7558 13.7553 27.6005 13.8196 27.4859 13.9342C27.3714 14.0487 27.307 14.2041 27.307 14.3661C27.307 14.5281 27.3714 14.6835 27.4859 14.7981C27.6005 14.9126 27.7558 14.977 27.9178 14.977H32.7362V26.5047C32.7362 26.7562 32.6363 26.9973 32.4585 27.1751C32.2807 27.3529 32.0396 27.4528 31.7881 27.4528H28.988C28.826 27.4528 28.6707 27.5171 28.5561 27.6317C28.4416 27.7462 28.3772 27.9016 28.3772 28.0636C28.3772 28.2256 28.4416 28.381 28.5561 28.4955C28.6707 28.6101 28.826 28.6744 28.988 28.6744H31.7881C32.3636 28.6744 32.9154 28.4459 33.3223 28.039C33.7292 27.6321 33.9578 27.0802 33.9578 26.5047V14.5665C33.9857 14.5008 34 14.4301 34 14.3588C34 14.2874 33.9857 14.2168 33.9578 14.1511V14.1609Z" fill="#66C6BA"/>
</svg>
